<svg id="Capa_1" enable-background="new 0 0 512 512" height="512" viewBox="0 0 512 512" width="512" xmlns="http://www.w3.org/2000/svg"><g><circle cx="256" cy="256" fill="#8cc7fc" r="256"/><path d="m512 256c0-13.732-1.094-27.208-3.176-40.355l-109.384-109.383-266.509 309.121 95.089 95.089c9.191.999 18.523 1.528 27.98 1.528 141.385 0 256-114.615 256-256z" fill="#6cb1f8"/><path d="m222.757 106.355c-41.502 41.502-47.711 104.924-18.644 152.995l-113.607 113.606 21.213 21.213 234.565-167.911 53.249-119.904c-48.815-48.815-127.96-48.815-176.776.001z" fill="#555a65"/><path d="m132.932 415.383 113.607-113.607c48.071 29.067 111.492 22.858 152.995-18.644 48.815-48.816 48.816-127.961 0-176.777l-287.815 287.815z" fill="#333940"/><path d="m240.435 124.033c-39.052 39.052-39.052 102.369 0 141.421l99.868-41.553 41.553-99.868c-39.052-39.053-102.369-39.053-141.421 0z" fill="#fff"/><path d="m381.856 265.454c39.052-39.052 39.052-102.369 0-141.421l-141.421 141.421c39.052 39.052 102.369 39.052 141.421 0z" fill="#e9edf5"/><g><path d="m323.009 182.88c-.018-.017-.034-.035-.052-.052-16.625-17.031-36.865-13.122-56.397-6.488-20.378 2.737-30.216 30.041-15.714 45.14 5.252 7.115 15.423 7.236 21.195 12.366l34.43-13.307z" fill="#fcc515"/><path d="m323.009 182.88c.017.018.035.034.052.052 17.031 16.625 13.122 36.865 6.488 56.397-2.737 20.378-30.041 30.216-45.14 15.714-7.115-5.252-7.236-15.423-12.366-21.195z" fill="#fa0"/><ellipse cx="284.572" cy="149.492" fill="#fcc515" rx="15.113" ry="10.795" transform="matrix(.5 -.866 .866 .5 12.822 321.193)"/><ellipse cx="327.573" cy="151.328" fill="#fcc515" rx="19.431" ry="12.954" transform="matrix(.643 -.766 .766 .643 1.089 304.992)"/><g fill="#fa0"><ellipse cx="354.56" cy="178.316" rx="19.431" ry="12.954" transform="matrix(.766 -.643 .643 .766 -31.668 269.625)"/><ellipse cx="356.396" cy="221.317" rx="15.113" ry="10.795" transform="matrix(.866 -.5 .5 .866 -62.91 207.849)"/></g></g></g></svg>